<mxfile host="app.diagrams.net" modified="2021-01-29T11:58:52.764Z" agent="5.0 (Macintosh; Intel Mac OS X 10_15_7) AppleWebKit/537.36 (KHTML, like Gecko) Chrome/88.0.4324.96 Safari/537.36 Edg/88.0.705.50" etag="nqaxrPJsi8se6MazEgJt" version="14.2.7" type="github">
  <diagram id="R2lEEEUBdFMjLlhIrx00" name="Page-1">
    <mxGraphModel dx="1878" dy="860" grid="1" gridSize="10" guides="1" tooltips="1" connect="1" arrows="1" fold="1" page="1" pageScale="1" pageWidth="850" pageHeight="1100" math="0" shadow="0" extFonts="Permanent Marker^https://fonts.googleapis.com/css?family=Permanent+Marker">
      <root>
        <mxCell id="0" />
        <mxCell id="1" parent="0" />
        <mxCell id="kdWr9ali9SnOY6jRfez1-14" style="edgeStyle=orthogonalEdgeStyle;rounded=0;orthogonalLoop=1;jettySize=auto;html=1;" edge="1" parent="1" source="kdWr9ali9SnOY6jRfez1-1" target="kdWr9ali9SnOY6jRfez1-2">
          <mxGeometry relative="1" as="geometry" />
        </mxCell>
        <mxCell id="kdWr9ali9SnOY6jRfez1-17" style="edgeStyle=orthogonalEdgeStyle;rounded=0;orthogonalLoop=1;jettySize=auto;html=1;" edge="1" parent="1" source="kdWr9ali9SnOY6jRfez1-1" target="kdWr9ali9SnOY6jRfez1-15">
          <mxGeometry relative="1" as="geometry" />
        </mxCell>
        <mxCell id="kdWr9ali9SnOY6jRfez1-1" value="Indigo C++ Core" style="rounded=0;whiteSpace=wrap;html=1;" vertex="1" parent="1">
          <mxGeometry x="330" y="40" width="120" height="60" as="geometry" />
        </mxCell>
        <mxCell id="kdWr9ali9SnOY6jRfez1-6" style="edgeStyle=orthogonalEdgeStyle;rounded=0;orthogonalLoop=1;jettySize=auto;html=1;" edge="1" parent="1" source="kdWr9ali9SnOY6jRfez1-2" target="kdWr9ali9SnOY6jRfez1-4">
          <mxGeometry relative="1" as="geometry" />
        </mxCell>
        <mxCell id="kdWr9ali9SnOY6jRfez1-8" style="edgeStyle=orthogonalEdgeStyle;rounded=0;orthogonalLoop=1;jettySize=auto;html=1;entryX=0.5;entryY=0;entryDx=0;entryDy=0;" edge="1" parent="1" source="kdWr9ali9SnOY6jRfez1-2" target="kdWr9ali9SnOY6jRfez1-3">
          <mxGeometry relative="1" as="geometry" />
        </mxCell>
        <mxCell id="kdWr9ali9SnOY6jRfez1-2" value="Bingo C++ Core" style="rounded=0;whiteSpace=wrap;html=1;" vertex="1" parent="1">
          <mxGeometry x="180" y="115" width="140" height="60" as="geometry" />
        </mxCell>
        <mxCell id="kdWr9ali9SnOY6jRfez1-12" style="edgeStyle=orthogonalEdgeStyle;rounded=0;orthogonalLoop=1;jettySize=auto;html=1;entryX=0.5;entryY=0;entryDx=0;entryDy=0;" edge="1" parent="1" source="kdWr9ali9SnOY6jRfez1-3" target="kdWr9ali9SnOY6jRfez1-10">
          <mxGeometry relative="1" as="geometry" />
        </mxCell>
        <mxCell id="kdWr9ali9SnOY6jRfez1-13" style="edgeStyle=orthogonalEdgeStyle;rounded=0;orthogonalLoop=1;jettySize=auto;html=1;" edge="1" parent="1" source="kdWr9ali9SnOY6jRfez1-3" target="kdWr9ali9SnOY6jRfez1-11">
          <mxGeometry relative="1" as="geometry" />
        </mxCell>
        <mxCell id="kdWr9ali9SnOY6jRfez1-3" value="Bingo C API" style="rounded=0;whiteSpace=wrap;html=1;" vertex="1" parent="1">
          <mxGeometry x="190" y="190" width="120" height="40" as="geometry" />
        </mxCell>
        <mxCell id="kdWr9ali9SnOY6jRfez1-4" value="Bingo Oracle" style="rounded=0;whiteSpace=wrap;html=1;" vertex="1" parent="1">
          <mxGeometry x="10" y="290" width="120" height="60" as="geometry" />
        </mxCell>
        <mxCell id="kdWr9ali9SnOY6jRfez1-9" style="edgeStyle=orthogonalEdgeStyle;rounded=0;orthogonalLoop=1;jettySize=auto;html=1;exitX=0.5;exitY=1;exitDx=0;exitDy=0;" edge="1" parent="1" source="kdWr9ali9SnOY6jRfez1-3" target="kdWr9ali9SnOY6jRfez1-3">
          <mxGeometry relative="1" as="geometry" />
        </mxCell>
        <mxCell id="kdWr9ali9SnOY6jRfez1-10" value="Bingo Postgres" style="rounded=0;whiteSpace=wrap;html=1;" vertex="1" parent="1">
          <mxGeometry x="140" y="290" width="120" height="60" as="geometry" />
        </mxCell>
        <mxCell id="kdWr9ali9SnOY6jRfez1-11" value="Bingo SqlServer&lt;br&gt;" style="rounded=0;whiteSpace=wrap;html=1;" vertex="1" parent="1">
          <mxGeometry x="270" y="290" width="120" height="60" as="geometry" />
        </mxCell>
        <mxCell id="kdWr9ali9SnOY6jRfez1-22" style="edgeStyle=orthogonalEdgeStyle;rounded=0;orthogonalLoop=1;jettySize=auto;html=1;entryX=0.5;entryY=0;entryDx=0;entryDy=0;" edge="1" parent="1" source="kdWr9ali9SnOY6jRfez1-15" target="kdWr9ali9SnOY6jRfez1-20">
          <mxGeometry relative="1" as="geometry" />
        </mxCell>
        <mxCell id="kdWr9ali9SnOY6jRfez1-24" style="edgeStyle=orthogonalEdgeStyle;rounded=0;orthogonalLoop=1;jettySize=auto;html=1;" edge="1" parent="1" source="kdWr9ali9SnOY6jRfez1-15" target="kdWr9ali9SnOY6jRfez1-21">
          <mxGeometry relative="1" as="geometry" />
        </mxCell>
        <mxCell id="kdWr9ali9SnOY6jRfez1-28" style="edgeStyle=orthogonalEdgeStyle;rounded=0;orthogonalLoop=1;jettySize=auto;html=1;entryX=0.5;entryY=0;entryDx=0;entryDy=0;" edge="1" parent="1" source="kdWr9ali9SnOY6jRfez1-15" target="kdWr9ali9SnOY6jRfez1-25">
          <mxGeometry relative="1" as="geometry" />
        </mxCell>
        <mxCell id="kdWr9ali9SnOY6jRfez1-32" style="edgeStyle=orthogonalEdgeStyle;rounded=0;orthogonalLoop=1;jettySize=auto;html=1;" edge="1" parent="1" source="kdWr9ali9SnOY6jRfez1-15" target="kdWr9ali9SnOY6jRfez1-29">
          <mxGeometry relative="1" as="geometry" />
        </mxCell>
        <mxCell id="kdWr9ali9SnOY6jRfez1-33" style="edgeStyle=orthogonalEdgeStyle;rounded=0;orthogonalLoop=1;jettySize=auto;html=1;entryX=0.5;entryY=0;entryDx=0;entryDy=0;" edge="1" parent="1" source="kdWr9ali9SnOY6jRfez1-15" target="kdWr9ali9SnOY6jRfez1-30">
          <mxGeometry relative="1" as="geometry" />
        </mxCell>
        <mxCell id="kdWr9ali9SnOY6jRfez1-47" style="edgeStyle=orthogonalEdgeStyle;rounded=0;orthogonalLoop=1;jettySize=auto;html=1;" edge="1" parent="1" source="kdWr9ali9SnOY6jRfez1-15" target="kdWr9ali9SnOY6jRfez1-46">
          <mxGeometry relative="1" as="geometry" />
        </mxCell>
        <mxCell id="kdWr9ali9SnOY6jRfez1-15" value="Indigo C API" style="rounded=0;whiteSpace=wrap;html=1;" vertex="1" parent="1">
          <mxGeometry x="520" y="110" width="90" height="50" as="geometry" />
        </mxCell>
        <mxCell id="kdWr9ali9SnOY6jRfez1-18" style="edgeStyle=orthogonalEdgeStyle;rounded=0;orthogonalLoop=1;jettySize=auto;html=1;exitX=0.5;exitY=1;exitDx=0;exitDy=0;" edge="1" parent="1" source="kdWr9ali9SnOY6jRfez1-15" target="kdWr9ali9SnOY6jRfez1-15">
          <mxGeometry relative="1" as="geometry" />
        </mxCell>
        <mxCell id="kdWr9ali9SnOY6jRfez1-44" style="edgeStyle=orthogonalEdgeStyle;rounded=0;orthogonalLoop=1;jettySize=auto;html=1;" edge="1" parent="1" source="kdWr9ali9SnOY6jRfez1-20" target="kdWr9ali9SnOY6jRfez1-42">
          <mxGeometry relative="1" as="geometry" />
        </mxCell>
        <mxCell id="kdWr9ali9SnOY6jRfez1-20" value="Indigo Python API" style="rounded=0;whiteSpace=wrap;html=1;" vertex="1" parent="1">
          <mxGeometry x="440" y="200" width="120" height="60" as="geometry" />
        </mxCell>
        <mxCell id="kdWr9ali9SnOY6jRfez1-45" style="edgeStyle=orthogonalEdgeStyle;rounded=0;orthogonalLoop=1;jettySize=auto;html=1;entryX=0.5;entryY=0;entryDx=0;entryDy=0;" edge="1" parent="1" source="kdWr9ali9SnOY6jRfez1-21" target="kdWr9ali9SnOY6jRfez1-43">
          <mxGeometry relative="1" as="geometry" />
        </mxCell>
        <mxCell id="kdWr9ali9SnOY6jRfez1-21" value="Indigo Java API" style="rounded=0;whiteSpace=wrap;html=1;" vertex="1" parent="1">
          <mxGeometry x="570" y="200" width="120" height="60" as="geometry" />
        </mxCell>
        <mxCell id="kdWr9ali9SnOY6jRfez1-25" value="Indigo .NET API" style="rounded=0;whiteSpace=wrap;html=1;" vertex="1" parent="1">
          <mxGeometry x="700" y="200" width="120" height="60" as="geometry" />
        </mxCell>
        <mxCell id="kdWr9ali9SnOY6jRfez1-29" value="Indigo R API" style="rounded=0;whiteSpace=wrap;html=1;" vertex="1" parent="1">
          <mxGeometry x="830" y="200" width="120" height="60" as="geometry" />
        </mxCell>
        <mxCell id="kdWr9ali9SnOY6jRfez1-30" value="Indigo WASM Ketcher API" style="rounded=0;whiteSpace=wrap;html=1;" vertex="1" parent="1">
          <mxGeometry x="970" y="200" width="130" height="60" as="geometry" />
        </mxCell>
        <mxCell id="kdWr9ali9SnOY6jRfez1-35" value="Ketcher" style="shape=hexagon;perimeter=hexagonPerimeter2;whiteSpace=wrap;html=1;fixedSize=1;" vertex="1" parent="1">
          <mxGeometry x="1320" y="190" width="120" height="80" as="geometry" />
        </mxCell>
        <mxCell id="kdWr9ali9SnOY6jRfez1-40" value="Imago OCR" style="shape=hexagon;perimeter=hexagonPerimeter2;whiteSpace=wrap;html=1;fixedSize=1;" vertex="1" parent="1">
          <mxGeometry x="1320" y="95" width="120" height="80" as="geometry" />
        </mxCell>
        <mxCell id="kdWr9ali9SnOY6jRfez1-42" value="Bingo Elastic Python" style="rounded=0;whiteSpace=wrap;html=1;" vertex="1" parent="1">
          <mxGeometry x="440" y="290" width="120" height="60" as="geometry" />
        </mxCell>
        <mxCell id="kdWr9ali9SnOY6jRfez1-43" value="Bingo Elastic Java" style="rounded=0;whiteSpace=wrap;html=1;" vertex="1" parent="1">
          <mxGeometry x="570" y="290" width="120" height="60" as="geometry" />
        </mxCell>
        <mxCell id="kdWr9ali9SnOY6jRfez1-46" value="Indigo Utils" style="whiteSpace=wrap;html=1;" vertex="1" parent="1">
          <mxGeometry x="360" y="380" width="120" height="60" as="geometry" />
        </mxCell>
        <mxCell id="kdWr9ali9SnOY6jRfez1-49" value="" style="endArrow=none;dashed=1;html=1;dashPattern=1 3;strokeWidth=2;exitX=1;exitY=0.5;exitDx=0;exitDy=0;" edge="1" parent="1" source="kdWr9ali9SnOY6jRfez1-15" target="kdWr9ali9SnOY6jRfez1-40">
          <mxGeometry width="50" height="50" relative="1" as="geometry">
            <mxPoint x="1080" y="210" as="sourcePoint" />
            <mxPoint x="1130" y="160" as="targetPoint" />
          </mxGeometry>
        </mxCell>
        <mxCell id="kdWr9ali9SnOY6jRfez1-50" value="" style="endArrow=none;dashed=1;html=1;dashPattern=1 3;strokeWidth=2;exitX=1;exitY=0.5;exitDx=0;exitDy=0;entryX=0;entryY=0.5;entryDx=0;entryDy=0;" edge="1" parent="1" source="kdWr9ali9SnOY6jRfez1-30" target="kdWr9ali9SnOY6jRfez1-35">
          <mxGeometry width="50" height="50" relative="1" as="geometry">
            <mxPoint x="1080" y="210" as="sourcePoint" />
            <mxPoint x="1130" y="160" as="targetPoint" />
          </mxGeometry>
        </mxCell>
      </root>
    </mxGraphModel>
  </diagram>
</mxfile>
